<svg id="Capa_1" data-name="Capa 1" xmlns="http://www.w3.org/2000/svg" viewBox="0 0 1080 1080"><defs><style>.cls-1{fill:#3c4043;}</style></defs><title>Engranaje_nav</title><path class="cls-1" d="M1049.05,629l-81.61-47.12a35,35,0,0,1-17.57-31.1c.08-3.41.13-6.84.13-10.28q0-8.44-.34-16.82a35,35,0,0,1,17-31.51l81.11-48.39a53.58,53.58,0,0,0,18.57-73.47L938.74,156.45a53.58,53.58,0,0,0-73.47-18.57l-82,48.89a34.92,34.92,0,0,1-35.63,0q-6.18-3.65-12.5-7.07a34.91,34.91,0,0,1-18.32-30.68V88.45A88.45,88.45,0,0,0,628.4,0H449.12a88.45,88.45,0,0,0-88.45,88.45v61.82a34.71,34.71,0,0,1-17.9,30.46q-8.59,4.72-16.94,9.83a34.71,34.71,0,0,1-35.49.38L236.75,160a88.45,88.45,0,0,0-120.83,32.37L26.29,347.63A88.44,88.44,0,0,0,58.66,468.45l53.77,31a34.7,34.7,0,0,1,17.42,30.84c-.08,3.37-.12,6.76-.12,10.15q0,7.59.27,15.1a34.71,34.71,0,0,1-17,31L29.79,636.24a53.58,53.58,0,0,0-18.57,73.47l109.7,183.9a88.45,88.45,0,0,0,121.27,30.66l52.33-31.22a34.94,34.94,0,0,1,35.79.05q6,3.6,12.21,7a34.92,34.92,0,0,1,18.15,30.58v60.87A88.45,88.45,0,0,0,449.12,1080H628.4a88.45,88.45,0,0,0,88.45-88.45V931.9a35,35,0,0,1,18.41-30.74q9.18-5,18.08-10.42a35,35,0,0,1,35.79-.55L840.77,920a88.44,88.44,0,0,0,120.82-32.37l107.07-185.45A53.58,53.58,0,0,0,1049.05,629Zm-74.16,99.89L920.52,823a53.59,53.59,0,0,1-73.2,19.62l-81.15-46.86a340.72,340.72,0,0,1-118.36,68.43v93.61a53.58,53.58,0,0,1-53.58,53.59H485.5a53.59,53.59,0,0,1-53.59-53.59V864.22A340.67,340.67,0,0,1,317.2,799l-80.46,48a53.59,53.59,0,0,1-73.48-18.57L107.56,735a53.59,53.59,0,0,1,18.57-73.47l80.42-48a343.64,343.64,0,0,1-1-141.49L124.45,425.3a53.58,53.58,0,0,1-19.61-73.2l54.36-94.17a53.58,53.58,0,0,1,73.2-19.61l81.16,46.85a340.83,340.83,0,0,1,118.35-68.43V123.13A53.58,53.58,0,0,1,485.5,69.55H594.23a53.58,53.58,0,0,1,53.58,53.58v93.61A340.6,340.6,0,0,1,762.52,282L843,234a53.58,53.58,0,0,1,73.47,18.57l55.7,93.38a53.58,53.58,0,0,1-18.57,73.47l-80.42,48a343.69,343.69,0,0,1,1,141.5l81.08,46.81A53.59,53.59,0,0,1,974.89,728.87Z"/><circle class="cls-1" cx="539.66" cy="540.01" r="200.19"/></svg>