<svg id="Capa_1" data-name="Capa 1" xmlns="http://www.w3.org/2000/svg" viewBox="0 0 1080 1080"><defs><style>.cls-1{fill:#fff;}.cls-2{fill:none;}.cls-3{fill:#fbc403;}.cls-4{fill:#3bcf3e;}.cls-5{fill:#1a73e8;}.cls-6{fill:#ed2b22;}</style></defs><title>favicon</title><circle class="cls-1" cx="540" cy="556.37" r="536.59"/><polygon class="cls-2" points="659 687.84 582.55 485.87 498.57 485.87 422.12 687.84 659 687.84"/><polygon class="cls-3" points="498.57 485.87 358.98 485.87 177.96 935.04 330.75 935.04 377.12 811.27 422.12 687.84 498.57 485.87"/><polygon class="cls-4" points="721.02 485.87 582.55 485.87 659 687.84 704 811.27 750.37 935.04 902.04 935.04 721.02 485.87"/><polygon class="cls-5" points="422.12 687.84 377.12 811.27 704 811.27 659 687.84 422.12 687.84"/><path class="cls-6" d="M359,485.87l105.41,90.31L540.56,375l76.38,201.76L721,485.87,540,36.69Z"/></svg>