<svg id="Capa_1" data-name="Capa 1" xmlns="http://www.w3.org/2000/svg" viewBox="0 0 1080 1080"><defs><style>.cls-1{fill:#70757a;}.cls-2{fill:#fff;}</style></defs><title>icon_about_me</title><path class="cls-1" d="M0,878.28a112,112,0,0,0,112,112H532.24V547H0Z"/><path class="cls-1" d="M112,117.07A112,112,0,0,0,0,229V547H532.24V117.07Z"/><path class="cls-1" d="M968,117.07H532.24V546.51H1080V229A112,112,0,0,0,968,117.07Z"/><path class="cls-1" d="M532.24,990.25H968a112,112,0,0,0,112-112V546.51H532.24Z"/><rect class="cls-2" x="62.03" y="177.69" width="954.97" height="757.35" rx="78.08"/><rect class="cls-1" x="695.83" y="311.47" width="233.84" height="123.85"/><rect class="cls-1" x="695.83" y="494.1" width="233.84" height="123.85"/><rect class="cls-1" x="695.83" y="676.73" width="233.84" height="123.85"/><circle class="cls-1" cx="376.13" cy="466.85" r="152.19"/><path class="cls-1" d="M141.32,721.38l-8.25,14.29c-15.84,27.43,4,61.71,35.62,61.71H583.57c31.67,0,51.47-34.28,35.63-61.71L611,721.38C506.59,540.61,245.68,540.61,141.32,721.38Z"/></svg>