<svg id="Capa_1" data-name="Capa 1" xmlns="http://www.w3.org/2000/svg" viewBox="0 0 1080 1080"><defs><style>.cls-1{fill:#70757a;}.cls-2{fill:#fff;}</style></defs><title>icon_design</title><path class="cls-1" d="M0,873A112,112,0,0,0,112,985H532.24V541.72H0Z"/><path class="cls-1" d="M112,111.79a112,112,0,0,0-112,112v318H532.24V111.79Z"/><path class="cls-1" d="M968,111.79H532.24V541.23H1080V223.76A112,112,0,0,0,968,111.79Z"/><path class="cls-1" d="M532.24,985H968a112,112,0,0,0,112-112V541.23H532.24Z"/><rect class="cls-2" x="62.03" y="172.42" width="954.97" height="757.35" rx="78.08"/><rect class="cls-1" x="173.86" y="638.5" width="732.28" height="181.86"/><circle class="cls-1" cx="758.46" cy="402.63" r="147.68"/><polygon class="cls-1" points="348.25 251.61 173.86 553.66 522.64 553.66 348.25 251.61"/></svg>