<svg id="Capa_1" data-name="Capa 1" xmlns="http://www.w3.org/2000/svg" viewBox="0 0 1080 1080"><defs><style>.cls-1{fill:#fbc403;}.cls-2{fill:#ed2b22;}.cls-3{fill:#1a73e8;}.cls-4{fill:#3bcf3e;}.cls-5{fill:#fff;}</style></defs><title>icon_cv</title><path class="cls-1" d="M0,871.77a112,112,0,0,0,112,112H532.24V540.48H0Z"/><path class="cls-2" d="M112,110.56a112,112,0,0,0-112,112v318H532.24V110.56Z"/><path class="cls-3" d="M968,110.56H532.24V540H1080V222.53A112,112,0,0,0,968,110.56Z"/><path class="cls-4" d="M532.24,983.74H968a112,112,0,0,0,112-112V540H532.24Z"/><rect class="cls-5" x="84.01" y="196.89" width="912.56" height="702.99" rx="78.08"/><rect class="cls-3" x="173.64" y="292.84" width="262.26" height="338.59"/><rect class="cls-3" x="532.24" y="292.84" width="373.69" height="125.67"/><rect class="cls-3" x="532.24" y="505.77" width="373.69" height="125.67"/><rect class="cls-3" x="173.64" y="694.7" width="732.28" height="125.67"/></svg>